<mxfile host="app.diagrams.net" modified="2024-01-17T14:20:32.620Z" agent="Mozilla/5.0 (X11; Linux x86_64; rv:121.0) Gecko/20100101 Firefox/121.0" version="22.1.21" etag="ftjy9_pRTV7b5f0k7lRK" type="github">
  <diagram name="Page-1" id="aQwLGIeGhf70zuM7gNEW">
    <mxGraphModel>
      <root>
        <mxCell id="0" />
        <mxCell id="1" parent="0" />
      </root>
    </mxGraphModel>
  </diagram>
</mxfile>
